<svg width="259" height="56" viewBox="0 0 259 56" fill="none" xmlns="http://www.w3.org/2000/svg">
<path d="M31.0317 28.0698V55.3895C45.2764 54.3344 56.5139 42.522 56.5787 28.0698H31.0317Z" fill="black"/>
<path d="M27.0741 0C12.0669 0.335898 0.00195312 12.5596 0.00195312 27.5996C0.00195312 42.6396 12.0669 54.8612 27.0741 55.1992V0Z" fill="black"/>
<path d="M41.0854 23.3169C45.4676 23.3169 49.02 19.776 49.02 15.4082C49.02 11.0403 45.4676 7.49951 41.0854 7.49951C36.7033 7.49951 33.1509 11.0403 33.1509 15.4082C33.1509 19.776 36.7033 23.3169 41.0854 23.3169Z" fill="#0592A0"/>
<path d="M87.1336 23.7075C86.9197 23.0293 86.5957 22.4307 86.1593 21.9096C85.723 21.3885 85.198 20.9493 84.5845 20.5897C83.971 20.2301 83.2754 19.9588 82.4999 19.7715C81.7244 19.5841 80.884 19.4916 79.9811 19.4916C78.834 19.4916 77.769 19.6423 76.7861 19.9459C75.801 20.2495 74.9455 20.6973 74.2154 21.2873C73.4852 21.8794 72.9128 22.6072 72.4958 23.4707C72.0789 24.3362 71.8715 25.3289 71.8715 26.4507C71.8715 27.5725 72.0789 28.6598 72.4958 29.5599C72.9128 30.4599 73.4917 31.2135 74.2391 31.8207C74.9844 32.4279 75.8658 32.8844 76.879 33.1945C77.8943 33.5024 79.0046 33.6574 80.2122 33.6574C81.1346 33.6574 82.0246 33.5691 82.8823 33.3926C83.7399 33.216 84.5046 32.9447 85.1808 32.5808C85.8548 32.2169 86.4143 31.754 86.8549 31.192C87.2956 30.63 87.5635 29.9604 87.6542 29.1831H80.6248V25.725H93.2708V28.774C93.2708 29.8269 93.286 30.8626 93.3162 31.8832C93.3465 32.9038 93.394 33.8856 93.4609 34.8266C93.5279 35.7675 93.6251 36.6159 93.7569 37.3738H89.9981C89.8771 36.4027 89.7907 35.4445 89.7389 34.4993C89.6892 33.554 89.6481 32.7014 89.6179 31.9435C89.4559 32.6519 89.0951 33.3667 88.5378 34.0902C87.9804 34.8137 87.2567 35.4661 86.3689 36.0474C85.481 36.6288 84.4463 37.1047 83.2646 37.4729C82.083 37.8411 80.7912 38.0262 79.3913 38.0262C77.4536 38.0262 75.6649 37.7549 74.0274 37.2145C72.39 36.674 70.9772 35.9096 69.7891 34.9235C68.6009 33.9373 67.6742 32.7488 67.0045 31.3599C66.3348 29.969 66 28.4208 66 26.7112C66 24.8207 66.35 23.1477 67.0499 21.69C67.7498 20.2344 68.7241 19.0114 69.9705 18.0188C71.2191 17.0283 72.7075 16.2768 74.4357 15.7665C76.1661 15.2562 78.0606 15 80.1193 15C81.733 15 83.2063 15.183 84.5392 15.5469C85.872 15.9108 87.058 16.419 88.0928 17.0714C89.1275 17.7238 90.0154 18.4989 90.7563 19.399C91.4973 20.299 92.0806 21.2787 92.5061 22.3424L87.3475 23.6774C87.2654 23.6967 87.1963 23.7075 87.1336 23.7075Z" fill="black"/>
<path d="M116.228 33.0052H103.612L101.588 37.374H95.6084L106.55 15.6548H113.519L124.445 37.374H118.282L116.228 33.0052ZM105.591 28.7742H114.249L109.911 19.4918L105.589 28.7742H105.591Z" fill="#0592A0"/>
<path d="M151.794 37.374V23.9962L151.93 21.0227L150.729 23.951L144.125 37.374H139.362L132.758 23.9962L131.557 20.9775L131.693 23.9812V37.374H126.686V15.6548H134.065L140.792 29.3663L141.963 32.9772L143.134 29.3663L149.861 15.6548H157.225V37.374H151.792H151.794Z" fill="black"/>
<path d="M180.432 26.1343C181.173 26.1946 181.923 26.3173 182.685 26.4982C183.446 26.6812 184.13 26.9633 184.74 27.3466C185.349 27.732 185.846 28.2315 186.23 28.8473C186.615 29.4632 186.809 30.2426 186.809 31.1836C186.809 32.1245 186.636 32.9276 186.291 33.6856C185.945 34.4435 185.403 35.0959 184.662 35.6428C183.921 36.1897 182.977 36.6139 181.832 36.9175C180.685 37.2211 179.311 37.3718 177.708 37.3718H162.872V15.6526H177.693C179.013 15.6526 180.19 15.7581 181.231 15.9713C182.271 16.1844 183.15 16.516 183.865 16.9639C184.58 17.4139 185.124 17.9866 185.5 18.6864C185.876 19.3841 186.064 20.2174 186.064 21.1884C186.064 22.0368 185.898 22.7474 185.563 23.3201C185.228 23.8907 184.792 24.3558 184.254 24.7154C183.716 25.075 183.113 25.3441 182.443 25.5271C181.774 25.7101 181.104 25.8458 180.434 25.9362V26.1343H180.432ZM176.719 24.7089C177.114 24.7089 177.516 24.6766 177.92 24.6099C178.326 24.5431 178.693 24.4204 179.024 24.2374C179.354 24.0543 179.622 23.7981 179.829 23.4644C180.037 23.1306 180.141 22.6914 180.141 22.1445C180.141 21.5975 180.037 21.1368 179.829 20.7879C179.622 20.4391 179.348 20.1657 179.009 19.9697C178.669 19.7738 178.283 19.6403 177.853 19.5757C177.421 19.509 176.989 19.4767 176.552 19.4767H168.441V24.7089H176.719ZM176.278 33.5822C176.928 33.5822 177.529 33.5499 178.082 33.4832C178.635 33.4164 179.114 33.2829 179.521 33.0805C179.927 32.8781 180.246 32.5831 180.48 32.1934C180.713 31.8037 180.83 31.2912 180.83 30.6539C180.83 30.0165 180.713 29.545 180.48 29.1746C180.246 28.8064 179.937 28.5222 179.551 28.3263C179.166 28.1282 178.723 28.0033 178.227 27.9473C177.73 27.8913 177.211 27.8633 176.673 27.8633H168.441V33.5822H176.278Z" fill="black"/>
<path d="M190.931 37.3892V15.6699H196.668V32.8244H211.505V37.3892H190.931Z" fill="black"/>
<path d="M224.712 19.931V33.0956H228.957V37.3719H214.775V33.0956H218.975V19.931H214.775V15.6548H228.957V19.931H224.712Z" fill="#0592A0"/>
<path d="M244.695 38.0265C242.524 38.0265 240.558 37.7531 238.798 37.2083C237.037 36.6614 235.536 35.8862 234.293 34.8807C233.051 33.8752 232.092 32.6629 231.418 31.2483C230.744 29.8336 230.407 28.251 230.407 26.5005C230.407 24.7499 230.744 23.1996 231.418 21.7828C232.092 20.3682 233.051 19.1581 234.293 18.1569C235.536 17.1556 237.039 16.3805 238.806 15.8293C240.571 15.278 242.546 15.0024 244.725 15.0024C246.905 15.0024 248.86 15.278 250.614 15.8293C252.368 16.3805 253.867 17.1556 255.112 18.1569C256.354 19.1581 257.313 20.366 257.987 21.7828C258.661 23.1996 258.998 24.7715 258.998 26.5005C258.998 28.2295 258.661 29.8315 257.987 31.2483C257.313 32.6651 256.354 33.8752 255.112 34.8807C253.87 35.8862 252.366 36.6635 250.599 37.2083C248.834 37.7552 246.866 38.0265 244.695 38.0265ZM244.71 33.4294C245.907 33.4294 247.013 33.2744 248.028 32.9665C249.044 32.6586 249.918 32.2107 250.653 31.6251C251.387 31.0394 251.964 30.3159 252.381 29.4568C252.798 28.5977 253.005 27.6115 253.005 26.4983C253.005 25.3851 252.802 24.4183 252.396 23.5635C251.99 22.7087 251.42 21.9895 250.685 21.4017C249.951 20.8161 249.074 20.3682 248.061 20.0603C247.045 19.7524 245.931 19.5974 244.712 19.5974C243.494 19.5974 242.392 19.7524 241.373 20.0603C240.353 20.3682 239.476 20.8161 238.739 21.4017C238.005 21.9874 237.428 22.7109 237.011 23.57C236.594 24.4291 236.387 25.4045 236.387 26.4983C236.387 27.5921 236.594 28.5977 237.011 29.4568C237.428 30.3159 238.003 31.0394 238.739 31.6251C239.474 32.2107 240.353 32.6586 241.373 32.9665C242.392 33.2744 243.505 33.4294 244.712 33.4294H244.71Z" fill="black"/>
</svg>
