<?xml version="1.0" encoding="utf-8"?>
<!-- Generator: Adobe Illustrator 27.9.0, SVG Export Plug-In . SVG Version: 6.00 Build 0)  -->
<svg version="1.1" id="Layer_1" xmlns="http://www.w3.org/2000/svg" xmlns:xlink="http://www.w3.org/1999/xlink" x="0px" y="0px"
	 viewBox="0 0 122 34" enable-background="new 0 0 122 34" xml:space="preserve">
<g>
	
		<linearGradient id="SVGID_1_" gradientUnits="userSpaceOnUse" x1="70.1313" y1="12.6456" x2="94.6304" y2="12.6456" gradientTransform="matrix(1 0 0 -1 0 36)">
		<stop  offset="0" style="stop-color:#FFF33B"/>
		<stop  offset="0.14" style="stop-color:#FEE62D"/>
		<stop  offset="0.42" style="stop-color:#FDD51B"/>
		<stop  offset="0.7" style="stop-color:#FDCA0F"/>
		<stop  offset="1" style="stop-color:#FDC70C"/>
	</linearGradient>
	<path fill="url(#SVGID_1_)" d="M89.7,12.7h4.9v13.9c0,4.9-2.5,7.3-7.4,7.3c-2.7,0-4.4-0.8-4.9-2.5c-0.5,1.6-2.2,2.5-4.9,2.5
		c-4.9,0-7.3-2.5-7.3-7.3V12.7H75v13.9c0,1.6,0.8,2.4,2.4,2.4c1.6,0,2.5-0.8,2.5-2.4V12.7h4.9v13.9c0,1.6,0.8,2.4,2.4,2.4
		c1.6,0,2.4-0.8,2.4-2.4V12.7z"/>
	
		<linearGradient id="SVGID_00000139267260600828847380000007320650476172553662_" gradientUnits="userSpaceOnUse" x1="98.1079" y1="12.6446" x2="103.0105" y2="12.6446" gradientTransform="matrix(1 0 0 -1 0 36)">
		<stop  offset="0" style="stop-color:#FFF33B"/>
		<stop  offset="0.14" style="stop-color:#FEE62D"/>
		<stop  offset="0.42" style="stop-color:#FDD51B"/>
		<stop  offset="0.7" style="stop-color:#FDCA0F"/>
		<stop  offset="1" style="stop-color:#FDC70C"/>
	</linearGradient>
	<path fill="url(#SVGID_00000139267260600828847380000007320650476172553662_)" d="M103,12.7h-4.9V34h4.9V12.7z"/>
	
		<linearGradient id="SVGID_00000070825025511447382620000011813310267971995268_" gradientUnits="userSpaceOnUse" x1="106.4825" y1="12.6446" x2="122.0015" y2="12.6446" gradientTransform="matrix(1 0 0 -1 0 36)">
		<stop  offset="0" style="stop-color:#FFF33B"/>
		<stop  offset="0.14" style="stop-color:#FEE62D"/>
		<stop  offset="0.42" style="stop-color:#FDD51B"/>
		<stop  offset="0.7" style="stop-color:#FDCA0F"/>
		<stop  offset="1" style="stop-color:#FDC70C"/>
	</linearGradient>
	<path fill="url(#SVGID_00000070825025511447382620000011813310267971995268_)" d="M122,20.9V34h-4.9V20.9c0-2.2-0.9-3.3-2.8-3.3
		c-2,0-2.9,1.1-2.9,3.3V34h-4.9V20.9c0-5.4,2.6-8.2,7.8-8.2C119.5,12.7,122,15.5,122,20.9z"/>
	
		<linearGradient id="SVGID_00000064317940693618632130000013692805360139921043_" gradientUnits="userSpaceOnUse" x1="95.7407" y1="31.0575" x2="121.5155" y2="31.0575" gradientTransform="matrix(1 0 0 -1 0 36)">
		<stop  offset="0" style="stop-color:#FFF33B"/>
		<stop  offset="0.14" style="stop-color:#FEE62D"/>
		<stop  offset="0.42" style="stop-color:#FDD51B"/>
		<stop  offset="0.7" style="stop-color:#FDCA0F"/>
		<stop  offset="1" style="stop-color:#FDC70C"/>
	</linearGradient>
	<path fill="url(#SVGID_00000064317940693618632130000013692805360139921043_)" d="M120.1,3.3l-15.3-2.6l-4-0.7
		c-1.2-0.2-2.4,0.1-3.4,1c-0.8,0.6-1.3,1.5-1.6,2.5c-0.1,0.4-0.2,0.8-0.2,1.2c0,0.1,0,0.1,0,0.2c0,0.8,0.2,1.6,0.6,2.4
		c0.3,0.6,0.7,1.1,1.2,1.5c1,0.8,2.2,1.2,3.4,1l19.3-3.2c0.8-0.1,1.4-0.8,1.4-1.6S120.9,3.5,120.1,3.3L120.1,3.3z M97.8,4
		c0.4-1.2,1.5-2,2.8-2c1.6,0,3,1.3,3,3c0,0.3,0,0.5-0.1,0.7c0,0,0,0,0,0c-0.3,1.3-1.5,2.2-2.9,2.2c-1.6,0-3-1.3-3-3
		C97.6,4.6,97.7,4.3,97.8,4L97.8,4z"/>
	<path fill="#FFFFFF" d="M8.2,12.5c0,0,0.1,0,0.1,0c1.2,0.1,2.3,0.2,3.4,0.9c0.3,0.2,0.9,0.7,1,1c0.2,0,0.5-0.1,0.6-0.4
		c0.2-0.2,0.3-0.3,0.5-0.5c1.1-0.8,2.3-0.9,3.6-1c0.4,0,0.8,0,1.1,0c1.6,0,3,0.4,4.4,1.1c1.3,0.9,2.3,2.2,2.6,3.9
		c0.2,0.7,0.3,1.5,0.3,2.4c0,4.5,0,8.9,0,13.4c0,0.1,0,0.1,0,0.1c-0.2,0.2-4.7,0.2-5.2,0c-0.1-4.8-0.1-9.5,0-14.3
		c-0.2-0.2-0.4-0.5-0.5-0.8c0,0-0.2-0.2-0.3-0.3c-0.9-0.7-2-0.6-3-0.4c-0.6,0.3-0.7,0.3-1,0.9c-0.1,0.3-0.2,0.5-0.4,0.7
		c0.1,0,0.1,0,0.1,0c0.1,4.6,0,9.6-0.1,14.2c0,0.1,0,0.1-0.1,0.1h-5l-0.1-0.1c-0.1,0-0.1,0-0.1,0c0-4.3-0.1-8.8,0-13.1
		c-0.1-0.4,0-0.6,0.1-0.8l-0.1,0C10.1,17,6,16.8,5.3,18.9l-0.1,0l0.1,0c0,4.7-0.1,9.5-0.1,14.2c0.1,0.1,0,0.3-0.2,0.2
		c0,0.1,0,0.1,0,0.1c-1.5,0.1-3.4,0.1-4.8,0c0,0-0.1-0.1-0.1-0.1c-0.1-5-0.1-10.3,0-15.3C0,16.8,1,14.8,2,14
		c0.8-0.7,2.3-1.2,3.4-1.4C6.2,12.5,7.4,12.4,8.2,12.5L8.2,12.5z"/>
	<path fill="#FFFFFF" d="M67.6,12.9v6.6c0,0.4-0.4,1.7-0.6,2.1c-0.4,0.9-1.1,1.1-1.8,1.8c0.9,0.2,1.6,1.1,1.9,1.9
		c0.1,0.3,0.4,1.5,0.4,1.7v6.7c-0.1,0-0.3,0.1-0.3,0.1h-4.6c0,0-0.2-0.2-0.2-0.2v-6c0-0.2-0.5-1.1-0.6-1.2c-1-1-4.5-1-5.2,0.4
		c-0.6,1.3,0.1,6.2-0.3,6.8c-0.1,0.2-0.3,0.2-0.4,0.2c-0.8,0.1-3.4,0.1-4.1,0c-0.5-0.1-0.5-0.2-0.6-0.7c-0.1-1.4-0.1-3.8,0-5.3
		c0.1-1.4,0.4-3.1,1.5-4c0.4-0.3,1.2-0.4,0.6-0.8c-1.4-0.9-2.2-2.2-2.2-4v-6.2c0.1,0,0.3-0.1,0.3-0.1h4.8c0,0,0.2,0.2,0.2,0.2v6.2
		c0,0.5,0.8,1.2,1.2,1.4c0.9,0.4,3.2,0.4,4-0.2c0.3-0.2,0.8-1.2,0.8-1.6V13c0,0,0.2-0.2,0.2-0.2h4.6C67.4,12.8,67.5,12.9,67.6,12.9
		L67.6,12.9z"/>
	<path fill="#FFFFFF" d="M41.5,12.8c-5.3-1.1-10.2,0.5-10.9,6.4c-0.4,3.4-0.4,9.5-0.1,13c0,0.4,0.2,0.8,0.1,1.2h5.1v-4.7h5.8
		c0,0,0.2,0.2,0.2,0.2v4.6h5.1V18.9C46.9,16,44.3,13.3,41.5,12.8L41.5,12.8z M41.6,22.5c0,0.4,0,0.6-0.4,0.7
		c-0.5-0.1-5.6,0.2-5.6-0.1V19c0-0.1,0.5-1.2,0.6-1.4c1.1-1.3,4-1.3,4.9,0.2C41.6,18.7,41.7,21.4,41.6,22.5L41.6,22.5z"/>
</g>
</svg>
