<svg xmlns="http://www.w3.org/2000/svg" viewBox="-0.0019345283508300781 -1.1920928955078125e-7 283.4718933105469 61.659996032714844"><g xmlns="http://www.w3.org/2000/svg">
      <path class="cls-1" d="M113.46,42.44c-1.64,0-3.2-.2-4.64-.6-1.46-.4-2.75-1.07-3.83-1.97-1.08-.91-1.96-2.06-2.59-3.44-.63-1.37-.95-3-.95-4.83s.32-3.46.95-4.83c.63-1.38,1.5-2.53,2.59-3.44,1.08-.91,2.37-1.6,3.83-2.05,1.44-.45,3-.67,4.64-.67s3.2.23,4.64.68c1.46.45,2.74,1.14,3.82,2.04,1.08.91,1.96,2.06,2.59,3.44.63,1.38.95,3,.95,4.83s-.32,3.46-.95,4.83c-.63,1.38-1.5,2.53-2.59,3.44-1.09.91-2.38,1.57-3.83,1.97-1.44.4-3,.6-4.63.6M113.46,24.69c-.9,0-1.79.16-2.65.48-.86.32-1.63.78-2.31,1.37-.67.59-1.22,1.31-1.62,2.15-.41.84-.61,1.81-.61,2.9s.2,2.06.61,2.9c.4.84.95,1.56,1.62,2.15.67.59,1.45,1.05,2.31,1.36.85.32,1.75.48,2.65.48s1.79-.16,2.65-.48c.86-.31,1.63-.77,2.31-1.36.67-.58,1.21-1.31,1.62-2.15.4-.84.61-1.82.61-2.9s-.2-2.06-.61-2.9c-.41-.84-.95-1.57-1.62-2.15-.67-.59-1.45-1.05-2.31-1.37-.86-.32-1.74-.48-2.65-.48M159.93,42.44c-1.64,0-3.2-.2-4.63-.6-1.46-.4-2.75-1.07-3.83-1.97-1.09-.91-1.95-2.07-2.59-3.44-.63-1.37-.95-3-.95-4.83s.32-3.46.95-4.83c.63-1.38,1.5-2.53,2.59-3.44,1.09-.91,2.37-1.6,3.82-2.05,1.44-.45,3-.67,4.64-.67s3.2.23,4.64.68c1.46.45,2.75,1.14,3.82,2.04,1.08.91,1.96,2.06,2.59,3.44.63,1.38.95,3,.95,4.83s-.32,3.46-.95,4.83c-.63,1.38-1.51,2.53-2.59,3.44-1.08.91-2.37,1.57-3.83,1.97-1.44.4-3,.6-4.63.6M159.93,24.69c-.9,0-1.79.16-2.65.48-.85.32-1.63.78-2.31,1.37-.67.59-1.21,1.31-1.62,2.15-.41.84-.61,1.81-.61,2.9s.21,2.06.61,2.9c.4.84.95,1.56,1.62,2.15.67.59,1.45,1.05,2.3,1.36.86.32,1.75.48,2.65.48s1.79-.16,2.65-.48c.86-.31,1.63-.77,2.3-1.36.67-.58,1.22-1.31,1.62-2.15.4-.84.61-1.82.61-2.9s-.2-2.06-.61-2.9c-.41-.84-.95-1.57-1.62-2.15-.67-.59-1.45-1.05-2.31-1.37-.85-.32-1.74-.48-2.64-.48M98.04,44.82v-27.82h-5.2v19.07l-16.49-19.07h-5.44v27.82h5.2v-19.8l17.14,19.8h4.78ZM148.22,20.85h-5.16l-6.4,14.9-6.4-14.9h-5.16l9.29,21.42h4.55l9.29-21.42ZM234.82,42.27v-17.32h7.49v-4.1h-19.79v4.1h7.48v17.32h4.82ZM245.88,42.27h4.88v-21.42h-4.88v21.42ZM220.06,42.27l-2.23-5.21h-9.36l-2.22,5.21h-4.83l9.47-21.42h4.49l9.47,21.42h-4.8ZM216.08,32.97l-2.94-6.88-2.95,6.88h5.89ZM270.14,44.98c.29,0,.57-.01.86-.02,4.66-.27,9.16-2.57,12.11-4.46l.36-.23-2.35-4.05-.4.29c-2.37,1.73-6.13,3.78-10.58,3.78-1.37,0-2.71-.21-3.97-.63-1.26-.42-2.37-1.05-3.3-1.85-.93-.81-1.68-1.81-2.24-2.99-.55-1.18-.83-2.54-.83-4.05s.28-2.88.84-4.05c.55-1.17,1.31-2.18,2.24-2.99.93-.81,2.04-1.43,3.3-1.86,1.14-.38,2.36-.59,3.62-.62h.15s.2,0,.2,0c.4,0,.84.03,1.31.08,2.73.29,5.66,1.32,8.26,2.87l.38.23,2.64-4.39s-1.69-.74-1.98-.88c-2.55-1.05-6.43-2.44-10.61-2.44-2.06,0-4.07.31-5.95.9-1.9.6-3.59,1.5-5.04,2.7-1.46,1.19-2.62,2.7-3.47,4.47-.85,1.77-1.28,3.84-1.28,6.16s.43,4.44,1.28,6.19c.85,1.76,2.01,3.25,3.47,4.42,1.45,1.18,3.15,2.06,5.04,2.62,1.89.56,3.89.84,5.95.84M194.05,20.85l-6.98,12.73-6.98-12.73h-4.73v21.42h4.27v-13.31l7.44,13.36,7.44-13.36v13.31h4.27v-21.42h-4.73Z"></path>
      <path class="cls-1" d="M54.66,7.25c-1.76-2.73-5.3-4.64-10.82-5.84-4.25-.92-9.59-1.41-15.45-1.41s-11.2.49-15.45,1.41C7.41,2.61,3.87,4.52,2.11,7.25-.78,11.72-.11,18.25.67,25.82c.14,1.39.29,2.82.41,4.22.24,2.8.79,8.28,1.81,13.59,1.48,7.72,3.09,10.43,4.17,11.79,4.58,5.79,17.48,6.24,21.32,6.24s16.74-.45,21.33-6.24c1.08-1.37,2.69-4.08,4.17-11.79,1.02-5.31,1.57-10.79,1.82-13.59.12-1.4.27-2.83.4-4.22.78-7.56,1.45-14.09-1.44-18.57M53.98,25.6c-.14,1.39-.29,2.84-.41,4.25-.23,2.75-.78,8.15-1.78,13.37-1.39,7.26-2.81,9.68-3.75,10.88-4.1,5.18-17.1,5.44-19.66,5.44s-15.56-.26-19.65-5.44c-.94-1.19-2.36-3.62-3.75-10.88-1-5.22-1.54-10.62-1.78-13.37-.12-1.41-.27-2.86-.41-4.25-.74-7.17-1.37-13.35,1.11-17.2,1.44-2.24,4.55-3.84,9.49-4.92,4.1-.89,9.29-1.36,15-1.36s10.89.47,15,1.36c4.94,1.07,8.04,2.68,9.49,4.92,2.48,3.84,1.84,10.03,1.11,17.2"></path>
      <path class="cls-1" d="M28.38,5.16c11.01,0,19.96,1.82,21.93,4.89,2.33,3.61.9,11.65.23,19.54-.68,7.89-2.33,19.39-4.89,22.62-2.23,2.82-10.21,4.28-17.27,4.28s-15.04-1.47-17.27-4.28c-2.56-3.24-4.21-14.73-4.89-22.62-.68-7.89-2.1-15.94.23-19.54,1.98-3.06,10.92-4.89,21.93-4.89M12.13,16.14c-.3.17-.42.7-.42.7l-.32,1.4s-.12.34.09.77c.22.43,1.63.69,1.63.69,0,0,2.43.38,3.41,1.57.98,1.21.59,2.86.59,2.86l-2.67,13.02s-.26,1.27-.94,1.88c-.66.59-1.73.62-1.73.62,0,0-.64,0-1.05.18-.35.14-.46.72-.46.72l-.17.86s-.09.35.12.68c.2.31.77.38.77.38l13.43.1s.41-.03.63-.24c.22-.22.28-.68.28-.68l.22-1.23s.1-.38-.09-.6c-.22-.27-.41-.25-1.03-.39-.63-.15-.99-.33-1.62-.84-.76-.62-.49-1.84-.49-1.84l1.17-6.52s.15-.48.46-.46c.46.03.61.44.61.44l6.4,11.47s.21.39.56.64c.34.26,1.1.27,1.1.27l10.82-.09s.54.02.84-.23c.35-.3.44-.76.44-.76l.21-.95s.15-.44-.06-.87c-.24-.5-1.17-.61-2.22-.94-.78-.25-1.81-.8-2.15-1.32-.24-.37,0-1.13,0-1.13l3.61-14.83s.12-.61.73-1.25c.56-.57,2.08-.89,2.08-.89,0,0,.4-.07.64-.31.17-.17.24-.52.24-.52l.4-1.6s.12-.41-.12-.69c-.21-.25-.77-.25-.77-.25h-12.36s-.41-.02-.8.3c-.36.29-.41.6-.41.6l-.3,1.33s-.09.33.03.59c.14.33.49.35.49.35l.52.08s.97.19,1.46.69c.5.49.26,1.8.26,1.8l-1.8,8.64-6.54-12.47s-.19-.58-.9-1.29c-.71-.71-1.81-.64-1.81-.64h-12.21s-.51.01-.81.19"></path>
    </g></svg>